<svg width="1024" height="1024" viewBox="0 0 1024 1024" fill="none" xmlns="http://www.w3.org/2000/svg">
<circle cx="512" cy="512" r="512" fill="white"/>
<path d="M714.912 359.215V389.604H796.077V359.167C796.077 336.754 777.908 318.584 755.495 318.584C733.082 318.584 714.912 336.754 714.912 359.167L714.912 359.215Z" fill="#E32359"/>
<path d="M320.241 739.523C317.844 732.72 316.645 725.665 316.645 718.357C316.645 711.428 317.781 704.624 320.052 697.947C322.449 691.269 325.792 685.285 330.082 679.993C334.498 674.576 339.733 670.292 345.789 667.142C351.971 663.992 358.847 662.418 366.417 662.418C373.735 662.418 380.421 663.929 386.477 666.953C392.533 669.977 397.769 674.135 402.185 679.426C406.727 684.718 410.196 690.702 412.593 697.38C414.99 704.057 416.189 711.05 416.189 718.357C416.189 725.287 415.053 732.09 412.782 738.767C410.512 745.445 407.168 751.492 402.752 756.91C398.463 762.202 393.227 766.485 387.045 769.761C380.989 772.911 374.113 774.486 366.417 774.486C359.1 774.486 352.35 772.974 346.168 769.95C340.112 766.8 334.876 762.642 330.46 757.477C326.045 752.185 322.638 746.201 320.241 739.523Z" fill="#E32359"/>
<path d="M577.611 718.168C577.611 707.459 575.593 697.947 571.556 689.631C567.645 681.316 561.904 674.828 554.334 670.166C546.764 665.378 537.491 662.985 526.515 662.985H494.154V773.73H526.515C537.617 773.73 546.954 771.273 554.523 766.359C562.093 761.446 567.834 754.831 571.745 746.516C575.656 738.075 577.611 728.625 577.611 718.168Z" fill="#E32359"/>
<path fill-rule="evenodd" clip-rule="evenodd" d="M512 1024C794.77 1024 1024 794.77 1024 512C1024 229.23 794.77 0 512 0C229.23 0 0 229.23 0 512C0 794.77 229.23 1024 512 1024ZM390.253 355.949L390.252 470.769C390.252 493.182 408.422 511.351 430.835 511.351C453.248 511.351 471.417 493.182 471.417 470.769V333.803C471.417 311.39 489.587 293.22 512 293.22C534.413 293.22 552.582 311.39 552.582 333.803V470.769C552.582 493.182 570.752 511.351 593.165 511.351C615.578 511.351 633.747 493.182 633.747 470.769V355.949L633.789 355.963C635.487 290.205 689.327 237.419 755.495 237.419C822.734 237.419 877.242 291.928 877.242 359.167C877.242 362.583 877.102 365.967 876.826 369.312H877.242V551.934C877.242 574.347 859.073 592.516 836.66 592.516C814.247 592.516 796.077 574.347 796.077 551.934V470.769H714.912V473.987L714.871 473.972C713.173 539.731 659.333 592.516 593.165 592.516C561.983 592.516 533.539 580.794 512 561.515C490.461 580.794 462.017 592.516 430.835 592.516C364.667 592.516 310.827 539.731 309.129 473.972L309.088 473.987V359.167C309.088 336.754 290.918 318.584 268.505 318.584C246.092 318.584 227.923 336.754 227.923 359.167L227.922 551.934C227.922 574.347 209.753 592.516 187.34 592.516C164.927 592.516 146.758 574.347 146.758 551.934V369.312H147.174C146.898 365.967 146.758 362.583 146.758 359.167C146.758 291.928 201.266 237.419 268.505 237.419C334.673 237.419 388.513 290.205 390.211 355.963L390.253 355.949ZM340.68 780.722C348.376 784.502 356.955 786.392 366.417 786.392C375.375 786.392 383.702 784.565 391.398 780.911C399.094 777.257 405.78 772.281 411.458 765.981C417.135 759.556 421.551 752.311 424.705 744.248C427.859 736.059 429.436 727.491 429.436 718.546C429.436 710.105 427.922 701.852 424.894 693.789C421.866 685.726 417.577 678.418 412.026 671.867C406.6 665.315 400.04 660.087 392.344 656.181C384.648 652.275 376.069 650.323 366.606 650.323C357.649 650.323 349.322 652.212 341.626 655.992C333.93 659.646 327.18 664.685 321.377 671.111C315.699 677.41 311.284 684.655 308.129 692.844C304.975 700.907 303.398 709.412 303.398 718.357C303.398 726.924 304.912 735.303 307.94 743.492C310.968 751.555 315.258 758.863 320.809 765.414C326.36 771.84 332.984 776.942 340.68 780.722ZM148.645 717.412C148.645 709.223 150.033 701.223 152.809 693.411C155.71 685.474 159.874 678.292 165.299 671.867C170.724 665.315 177.411 660.15 185.359 656.37C193.307 652.464 202.328 650.512 212.421 650.512C224.407 650.512 234.626 653.283 243.079 658.827C251.658 664.244 257.966 671.237 262.004 679.804L251.595 686.23C248.693 680.308 245.035 675.647 240.619 672.245C236.203 668.717 231.472 666.197 226.425 664.685C221.505 663.173 216.585 662.418 211.664 662.418C203.59 662.418 196.461 664.055 190.279 667.331C184.097 670.481 178.861 674.765 174.572 680.182C170.408 685.474 167.254 691.458 165.11 698.136C162.965 704.687 161.892 711.365 161.892 718.168C161.892 725.602 163.154 732.72 165.677 739.523C168.201 746.327 171.733 752.374 176.275 757.666C180.817 762.832 186.116 766.989 192.172 770.139C198.354 773.163 205.041 774.675 212.232 774.675C217.278 774.675 222.451 773.793 227.75 772.029C233.049 770.265 237.969 767.556 242.511 763.902C247.179 760.249 250.901 755.524 253.677 749.729L264.653 755.398C261.877 762.076 257.588 767.745 251.784 772.407C245.981 777.068 239.483 780.596 232.292 782.99C225.227 785.384 218.288 786.581 211.475 786.581C202.265 786.581 193.812 784.628 186.116 780.722C178.42 776.691 171.733 771.399 166.056 764.847C160.505 758.17 156.215 750.736 153.187 742.547C150.159 734.232 148.645 725.854 148.645 717.412ZM526.515 785.447H480.907V651.267H526.515C540.772 651.267 552.631 654.291 562.093 660.339C571.682 666.26 578.873 674.324 583.667 684.529C588.462 694.608 590.859 705.821 590.859 718.168C590.859 731.775 588.209 743.618 582.91 753.697C577.738 763.776 570.294 771.588 560.579 777.131C550.991 782.675 539.636 785.447 526.515 785.447ZM732.953 773.73V785.447H642.683V651.267H731.25V662.985H655.93V711.365H721.598V722.515H655.93V773.73H732.953ZM862.297 676.402C860.404 674.261 858.197 672.371 855.673 670.733C853.15 668.969 850.311 667.457 847.157 666.197C844.003 664.937 840.596 663.929 836.938 663.173C833.405 662.418 829.62 662.04 825.583 662.04C813.85 662.04 805.208 664.307 799.656 668.843C794.231 673.253 791.519 679.3 791.519 686.986C791.519 692.277 792.78 696.435 795.304 699.459C797.953 702.482 802.053 704.939 807.605 706.829C813.156 708.719 820.221 710.672 828.8 712.687C838.389 714.703 846.652 717.097 853.591 719.869C860.53 722.641 865.893 726.42 869.677 731.208C873.462 735.87 875.355 742.232 875.355 750.296C875.355 756.469 874.156 761.824 871.759 766.359C869.362 770.895 866.019 774.675 861.729 777.698C857.439 780.722 852.33 782.99 846.4 784.502C840.47 785.888 833.973 786.581 826.908 786.581C819.969 786.581 813.282 785.888 806.848 784.502C800.54 782.99 794.547 780.848 788.869 778.076C783.192 775.179 777.893 771.525 772.973 767.115L779.596 756.343C781.993 758.863 784.832 761.257 788.112 763.524C791.519 765.666 795.241 767.619 799.278 769.383C803.441 771.147 807.857 772.533 812.525 773.541C817.319 774.423 822.24 774.864 827.286 774.864C838.01 774.864 846.337 772.911 852.267 769.005C858.323 765.099 861.351 759.304 861.351 751.618C861.351 746.075 859.837 741.665 856.809 738.389C853.781 734.988 849.239 732.216 843.183 730.074C837.127 727.932 829.683 725.854 820.852 723.838C811.516 721.696 803.631 719.302 797.196 716.656C790.762 714.01 785.904 710.546 782.624 706.262C779.47 701.852 777.893 696.057 777.893 688.875C777.893 680.56 779.912 673.568 783.949 667.898C788.112 662.103 793.79 657.756 800.981 654.858C808.172 651.834 816.436 650.323 825.772 650.323C831.702 650.323 837.19 650.952 842.237 652.212C847.41 653.346 852.141 655.047 856.43 657.315C860.846 659.583 864.946 662.418 868.731 665.819L862.297 676.402Z" fill="#E32359"/>
</svg>
