<svg width="250" height="274" viewBox="0 0 250 274" fill="none" xmlns="http://www.w3.org/2000/svg">
<path d="M88.519 124.5C83.319 127.7 64.6856 140.167 56.019 146L50.019 160.5H199.019C197.186 159.333 192.519 155.1 188.519 147.5C184.519 139.9 182.519 126.667 182.019 121C175.519 115.333 158.119 103.7 140.519 102.5C118.519 101 95.019 120.5 88.519 124.5Z" fill="white"/>
<path d="M85.019 83.5L75.519 121.5C78.0189 119.5 85.2884 114.654 90.0187 111.5L90.019 111.5C97.519 106.5 107.019 100 117.519 96C128.019 92 143.019 91 155.519 94C165.519 96.4 176.852 106.167 180.519 110.5C180.519 109.5 180.008 104.461 179.019 101C178.019 97.5 175.686 83.6667 174.019 76.5C170.519 74.6667 162.119 70.6 156.519 69C149.519 67 138.019 67.5 130.019 69C123.619 70.2 97.3523 79.1667 85.019 83.5Z" fill="white"/>
<path d="M103.519 36.5L99.019 70C109.352 66.6667 131.619 59.7 138.019 58.5C144.419 57.3 154.019 59.6667 158.019 61L153.019 32.5L138.019 24L103.519 36.5Z" fill="white"/>
<path d="M207.854 205.3L203.534 192.532C203.214 191.721 202.873 190.772 202.51 189.684C202.147 188.575 201.785 187.38 201.422 186.1C201.102 187.401 200.761 188.607 200.398 189.716C200.035 190.825 199.694 191.785 199.374 192.596L195.086 205.3H207.854ZM225.038 223.124H216.654C215.715 223.124 214.958 222.911 214.382 222.484C213.806 222.036 213.369 221.471 213.07 220.788L210.318 212.66H192.59L189.838 220.788C189.603 221.385 189.177 221.929 188.558 222.42C187.961 222.889 187.214 223.124 186.318 223.124H177.87L195.918 176.5H206.99L225.038 223.124Z" fill="white"/>
<path d="M149.28 198.42C150.752 198.42 152 198.239 153.024 197.876C154.069 197.492 154.922 196.969 155.584 196.308C156.245 195.647 156.725 194.879 157.024 194.004C157.322 193.108 157.472 192.148 157.472 191.124C157.472 189.076 156.8 187.476 155.456 186.324C154.133 185.172 152.074 184.596 149.28 184.596H144.928V198.42H149.28ZM172.256 223.124H162.464C160.65 223.124 159.349 222.441 158.56 221.076L150.816 207.54C150.453 206.964 150.048 206.548 149.6 206.292C149.152 206.015 148.512 205.876 147.68 205.876H144.928V223.124H134.112V176.5H149.28C152.65 176.5 155.52 176.852 157.888 177.556C160.277 178.239 162.218 179.199 163.712 180.436C165.226 181.673 166.325 183.135 167.008 184.82C167.69 186.505 168.032 188.34 168.032 190.324C168.032 191.839 167.829 193.268 167.424 194.612C167.018 195.956 166.421 197.204 165.632 198.356C164.842 199.487 163.861 200.5 162.688 201.396C161.536 202.292 160.202 203.028 158.688 203.604C159.392 203.967 160.053 204.425 160.672 204.98C161.29 205.513 161.845 206.153 162.336 206.9L172.256 223.124Z" fill="white"/>
<path d="M92.7 195.38H94.428C96.028 195.38 97.18 194.879 97.884 193.876L108.38 178.644C108.999 177.833 109.66 177.279 110.364 176.98C111.089 176.66 111.985 176.5 113.052 176.5H122.46L108.636 195.348C107.655 196.649 106.599 197.588 105.468 198.164C106.279 198.463 107.015 198.879 107.676 199.412C108.337 199.945 108.956 200.639 109.532 201.492L123.612 223.124H113.948C113.329 223.124 112.796 223.081 112.348 222.996C111.921 222.911 111.548 222.783 111.228 222.612C110.908 222.441 110.631 222.239 110.396 222.004C110.161 221.748 109.937 221.46 109.724 221.14L99.164 204.916C98.78 204.319 98.2893 203.903 97.692 203.668C97.116 203.412 96.3267 203.284 95.324 203.284H92.7V223.124H81.884V176.5H92.7V195.38Z" fill="white"/>
<path d="M53.984 205.3L49.664 192.532C49.344 191.721 49.0027 190.772 48.64 189.684C48.2773 188.575 47.9147 187.38 47.552 186.1C47.232 187.401 46.8907 188.607 46.528 189.716C46.1653 190.825 45.824 191.785 45.504 192.596L41.216 205.3H53.984ZM71.168 223.124H62.784C61.8453 223.124 61.088 222.911 60.512 222.484C59.936 222.036 59.4987 221.471 59.2 220.788L56.448 212.66H38.72L35.968 220.788C35.7333 221.385 35.3067 221.929 34.688 222.42C34.0907 222.889 33.344 223.124 32.448 223.124H24L42.048 176.5H53.12L71.168 223.124Z" fill="white"/>
<path d="M200.416 237.424V241.434H205.476V243.504H200.416V247.594H206.836V249.744H197.716V235.284H206.836V237.424H200.416Z" fill="white"/>
<path d="M190.819 235.284L184.979 249.744H182.549L176.709 235.284H178.869C179.103 235.284 179.293 235.341 179.439 235.454C179.586 235.567 179.696 235.714 179.769 235.894L183.179 244.714C183.293 245.001 183.399 245.317 183.499 245.664C183.606 246.004 183.706 246.361 183.799 246.734C183.879 246.361 183.966 246.004 184.059 245.664C184.153 245.317 184.256 245.001 184.369 244.714L187.759 235.894C187.813 235.741 187.916 235.601 188.069 235.474C188.229 235.347 188.423 235.284 188.649 235.284H190.819Z" fill="white"/>
<path d="M169.792 249.744H167.092V235.284H169.792V249.744Z" fill="white"/>
<path d="M159.8 237.494H155.44V249.744H152.75V237.494H148.39V235.284H159.8V237.494Z" fill="white"/>
<path d="M141.007 246.334C141.154 246.334 141.284 246.391 141.397 246.504L142.457 247.654C141.87 248.381 141.147 248.937 140.287 249.324C139.434 249.711 138.407 249.904 137.207 249.904C136.134 249.904 135.167 249.721 134.307 249.354C133.454 248.987 132.724 248.477 132.117 247.824C131.51 247.171 131.044 246.391 130.717 245.484C130.397 244.577 130.237 243.587 130.237 242.514C130.237 241.427 130.41 240.434 130.757 239.534C131.104 238.627 131.59 237.847 132.217 237.194C132.85 236.541 133.604 236.034 134.477 235.674C135.35 235.307 136.317 235.124 137.377 235.124C138.43 235.124 139.364 235.297 140.177 235.644C140.997 235.991 141.694 236.444 142.267 237.004L141.367 238.254C141.314 238.334 141.244 238.404 141.157 238.464C141.077 238.524 140.964 238.554 140.817 238.554C140.717 238.554 140.614 238.527 140.507 238.474C140.4 238.414 140.284 238.344 140.157 238.264C140.03 238.177 139.884 238.084 139.717 237.984C139.55 237.884 139.357 237.794 139.137 237.714C138.917 237.627 138.66 237.557 138.367 237.504C138.08 237.444 137.747 237.414 137.367 237.414C136.72 237.414 136.127 237.531 135.587 237.764C135.054 237.991 134.594 238.324 134.207 238.764C133.82 239.197 133.52 239.731 133.307 240.364C133.094 240.991 132.987 241.707 132.987 242.514C132.987 243.327 133.1 244.051 133.327 244.684C133.56 245.317 133.874 245.851 134.267 246.284C134.66 246.717 135.124 247.051 135.657 247.284C136.19 247.511 136.764 247.624 137.377 247.624C137.744 247.624 138.074 247.604 138.367 247.564C138.667 247.524 138.94 247.461 139.187 247.374C139.44 247.287 139.677 247.177 139.897 247.044C140.124 246.904 140.347 246.734 140.567 246.534C140.634 246.474 140.704 246.427 140.777 246.394C140.85 246.354 140.927 246.334 141.007 246.334Z" fill="white"/>
<path d="M117.186 237.424V241.434H122.246V243.504H117.186V247.594H123.606V249.744H114.486V235.284H123.606V237.424H117.186Z" fill="white"/>
<path d="M107.165 247.524V249.744H98.695V235.284H101.385V247.524H107.165Z" fill="white"/>
<path d="M91.3744 247.524V249.744H82.9044V235.284H85.5944V247.524H91.3744Z" fill="white"/>
<path d="M75.142 242.514C75.142 243.574 74.9653 244.557 74.612 245.464C74.2653 246.364 73.772 247.144 73.132 247.804C72.492 248.464 71.722 248.981 70.822 249.354C69.922 249.721 68.922 249.904 67.822 249.904C66.7287 249.904 65.732 249.721 64.832 249.354C63.932 248.981 63.1587 248.464 62.512 247.804C61.872 247.144 61.3753 246.364 61.022 245.464C60.6687 244.557 60.492 243.574 60.492 242.514C60.492 241.454 60.6687 240.474 61.022 239.574C61.3753 238.667 61.872 237.884 62.512 237.224C63.1587 236.564 63.932 236.051 64.832 235.684C65.732 235.311 66.7287 235.124 67.822 235.124C68.5553 235.124 69.2453 235.211 69.892 235.384C70.5387 235.551 71.132 235.791 71.672 236.104C72.212 236.411 72.6953 236.787 73.122 237.234C73.5553 237.674 73.922 238.167 74.222 238.714C74.522 239.261 74.7487 239.854 74.902 240.494C75.062 241.134 75.142 241.807 75.142 242.514ZM72.392 242.514C72.392 241.721 72.2853 241.011 72.072 240.384C71.8587 239.751 71.5553 239.214 71.162 238.774C70.7687 238.334 70.2887 237.997 69.722 237.764C69.162 237.531 68.5287 237.414 67.822 237.414C67.1153 237.414 66.4787 237.531 65.912 237.764C65.352 237.997 64.872 238.334 64.472 238.774C64.0787 239.214 63.7753 239.751 63.562 240.384C63.3487 241.011 63.242 241.721 63.242 242.514C63.242 243.307 63.3487 244.021 63.562 244.654C63.7753 245.281 64.0787 245.814 64.472 246.254C64.872 246.687 65.352 247.021 65.912 247.254C66.4787 247.487 67.1153 247.604 67.822 247.604C68.5287 247.604 69.162 247.487 69.722 247.254C70.2887 247.021 70.7687 246.687 71.162 246.254C71.5553 245.814 71.8587 245.281 72.072 244.654C72.2853 244.021 72.392 243.307 72.392 242.514Z" fill="white"/>
<path d="M52.9719 246.334C53.1185 246.334 53.2485 246.391 53.3619 246.504L54.4219 247.654C53.8352 248.381 53.1119 248.937 52.2519 249.324C51.3985 249.711 50.3719 249.904 49.1719 249.904C48.0985 249.904 47.1319 249.721 46.2719 249.354C45.4185 248.987 44.6885 248.477 44.0819 247.824C43.4752 247.171 43.0085 246.391 42.6819 245.484C42.3619 244.577 42.2019 243.587 42.2019 242.514C42.2019 241.427 42.3752 240.434 42.7219 239.534C43.0685 238.627 43.5552 237.847 44.1819 237.194C44.8152 236.541 45.5685 236.034 46.4419 235.674C47.3152 235.307 48.2819 235.124 49.3419 235.124C50.3952 235.124 51.3285 235.297 52.1419 235.644C52.9619 235.991 53.6585 236.444 54.2319 237.004L53.3319 238.254C53.2785 238.334 53.2085 238.404 53.1219 238.464C53.0419 238.524 52.9285 238.554 52.7819 238.554C52.6819 238.554 52.5785 238.527 52.4719 238.474C52.3652 238.414 52.2485 238.344 52.1219 238.264C51.9952 238.177 51.8485 238.084 51.6819 237.984C51.5152 237.884 51.3219 237.794 51.1019 237.714C50.8819 237.627 50.6252 237.557 50.3319 237.504C50.0452 237.444 49.7119 237.414 49.3319 237.414C48.6852 237.414 48.0919 237.531 47.5519 237.764C47.0185 237.991 46.5585 238.324 46.1719 238.764C45.7852 239.197 45.4852 239.731 45.2719 240.364C45.0585 240.991 44.9519 241.707 44.9519 242.514C44.9519 243.327 45.0652 244.051 45.2919 244.684C45.5252 245.317 45.8385 245.851 46.2319 246.284C46.6252 246.717 47.0885 247.051 47.6219 247.284C48.1552 247.511 48.7285 247.624 49.3419 247.624C49.7085 247.624 50.0385 247.604 50.3319 247.564C50.6319 247.524 50.9052 247.461 51.1519 247.374C51.4052 247.287 51.6419 247.177 51.8619 247.044C52.0885 246.904 52.3119 246.734 52.5319 246.534C52.5985 246.474 52.6685 246.427 52.7419 246.394C52.8152 246.354 52.8919 246.334 52.9719 246.334Z" fill="white"/>
</svg>
