<svg width="160" height="40" viewBox="0 0 160 40" fill="none" xmlns="http://www.w3.org/2000/svg">
<path d="M7.36959 28.3685C12.1643 28.3685 15.3163 25.5272 15.3163 22.3751C15.3163 19.4007 12.697 17.8024 11.1432 16.7369C8.92342 15.2275 7.45838 14.2952 7.45838 13.0521C7.45838 12.2086 8.12431 11.4539 9.27858 11.4539C11.3208 11.4539 12.8302 13.4961 13.0966 14.8723C13.141 15.1831 13.3629 15.3163 13.6293 15.3163C14.606 15.3163 16.3818 14.3396 16.3818 12.697C16.3818 10.6992 13.4961 8.9234 9.58935 8.9234C5.23863 8.9234 2.21976 11.5871 2.21976 14.828C2.21976 17.758 5.06105 19.4007 7.05883 20.7325C8.39068 21.6204 9.90012 22.7303 9.90012 24.0621C9.90012 25.0832 8.96782 25.7048 7.85794 25.7048C5.505 25.7048 3.6848 23.8846 3.55161 21.0877C3.55161 20.8213 3.28524 20.5549 2.88568 20.5549C1.77581 20.5549 0 21.7536 0 23.707C0 26.2375 3.10766 28.3685 7.36959 28.3685Z" fill="white"/>
<path d="M33.5267 21.2208C32.1948 23.0411 29.975 24.9944 27.4889 24.9944C25.3136 24.9944 23.9373 23.7514 23.6265 20.9545C27.3113 18.9567 32.8607 11.4539 32.8607 6.1265C32.8607 2.21973 29.7087 0.266342 27.3557 0.266342C21.7619 0.266342 17.8996 11.4095 17.8996 18.7347C17.8996 26.4151 22.3835 28.2797 25.5799 28.2797C30.4634 28.2797 34.5921 23.8402 34.5921 22.1532C34.5921 21.3984 33.9706 21.1321 33.5267 21.2208ZM28.732 3.19642C29.2203 3.19642 29.6199 3.64038 29.6199 4.83904C29.6199 7.76912 27.4445 14.828 23.5377 18.6903C23.8041 12.697 26.6898 3.19642 28.732 3.19642Z" fill="white"/>
<path d="M49.9626 21.2208C47.5652 23.8402 44.9903 25.0832 41.9714 25.0832C39.6185 25.0832 37.9315 23.707 37.7539 20.9101C41.5719 20.6881 47.876 17.9356 47.876 13.5405C47.876 10.788 45.3011 9.10098 42.0602 9.10098C35.9781 9.10098 31.8937 15.2719 31.8937 20.5105C31.8937 25.394 35.4454 28.3685 40.1512 28.3685C46.2334 28.3685 50.9393 23.485 50.9393 22.1088C50.9393 21.5316 50.4065 21.2208 49.9626 21.2208ZM42.6374 11.3651C43.2589 11.3651 43.7916 11.7203 43.7916 12.697C43.7916 15.0943 40.8616 18.5571 37.8427 19.0455C38.3754 15.5383 40.5952 11.3651 42.6374 11.3651Z" fill="white"/>
<path d="M67.2611 21.2208C64.8637 23.8402 62.2888 25.0832 59.2699 25.0832C56.917 25.0832 55.23 23.707 55.0524 20.9101C58.8704 20.6881 65.1745 17.9356 65.1745 13.5405C65.1745 10.788 62.5996 9.10098 59.3587 9.10098C53.2766 9.10098 49.1922 15.2719 49.1922 20.5105C49.1922 25.394 52.7439 28.3685 57.4497 28.3685C63.5319 28.3685 68.2378 23.485 68.2378 22.1088C68.2378 21.5316 67.705 21.2208 67.2611 21.2208ZM59.9359 11.3651C60.5574 11.3651 61.0901 11.7203 61.0901 12.697C61.0901 15.0943 58.1601 18.5571 55.1412 19.0455C55.6739 15.5383 57.8937 11.3651 59.9359 11.3651Z" fill="white"/>
<path d="M79.7205 9.32295C76.968 9.32295 74.5706 11.9423 72.8392 16.293C73.2832 14.0288 73.5496 12.5194 73.5496 12.1642C73.5496 10.6992 70.9303 9.27856 69.554 9.27856C69.0657 9.27856 68.7105 9.41174 68.7105 9.85569C68.7105 11.3651 64.7149 31.1654 64.7149 32.9856C64.7149 35.0277 67.6006 36.5816 69.1544 36.5816C69.6872 36.5816 70.0423 36.404 70.0423 35.96C70.0423 34.4062 70.7527 30.2775 71.5518 25.8823C72.8392 27.2142 74.5706 28.2353 76.3021 28.2353C81.8514 28.2353 85.4919 21.1321 85.4919 16.3374C85.4919 12.0755 82.5618 9.32295 79.7205 9.32295ZM74.837 25.172C73.6384 25.172 72.7948 24.0621 72.2177 22.8191C73.7715 17.8024 76.968 12.3862 78.655 12.3862C79.4985 12.3862 79.8093 13.4073 79.8093 14.8723C79.8093 18.5571 77.5007 25.172 74.837 25.172Z" fill="white"/>
<path d="M105.865 13.1409C106.221 11.01 103.157 9.32295 101.515 9.32295C100.938 9.32295 100.582 9.50053 100.582 9.98888C100.582 10.4328 100.449 11.2319 100.316 12.2974C99.073 18.8679 96.3648 24.5505 93.9231 24.5505C93.3016 24.5505 92.7688 24.2841 92.7688 23.1298C92.7688 20.9545 94.5003 14.384 94.5003 13.1409C94.5003 11.0544 91.5702 9.32295 90.1051 9.32295C89.5724 9.32295 89.2172 9.54493 89.2172 9.98888C89.2172 12.1642 87.0863 20.5993 87.0863 23.1742C87.0863 26.1487 89.6168 28.1021 92.4137 28.1021C95.1662 28.1021 97.164 25.9711 98.7622 22.5971C98.4514 24.8169 98.0963 27.0366 97.6523 29.0788C92.8132 30.1443 88.4181 33.1631 88.4181 36.3596C88.4181 38.4462 90.3271 40 93.2128 40C98.0519 40 100.804 35.9156 102.403 30.6326C102.891 30.6326 103.29 30.677 103.734 30.7214C104.134 30.7214 104.312 30.455 104.312 30.1887C104.312 29.7447 103.868 29.1676 102.935 28.8568C103.202 27.6581 103.468 26.4151 103.69 25.172L105.865 13.1409ZM92.6357 37.6471C91.8809 37.6471 91.437 37.2475 91.437 36.4484C91.437 34.6726 93.8787 32.6748 97.0308 31.5649C96.0097 35.1165 94.589 37.6471 92.6357 37.6471Z" fill="white"/>
<path d="M118.558 2.7525C119.313 2.7525 120.023 3.37403 120.689 4.70589C121.532 4.88347 122.953 3.90677 122.953 2.57492C122.953 1.10988 121.488 0 119.002 0C114.918 0 111.632 2.93008 110.656 8.16871L110.389 9.58936H108.613C107.903 9.58936 107.637 9.98892 107.637 10.3885C107.637 11.2764 108.569 12.475 109.457 12.475H109.857L106.216 31.7426C106.172 32.3641 106.838 32.7192 107.77 32.7192C109.368 32.7192 112.076 31.6538 112.52 28.9457L115.362 12.3419C117.137 12.2975 118.469 12.2087 118.736 12.1643C120.378 11.9423 121.71 10.8324 121.71 10.0333C121.71 9.67815 121.399 9.45617 120.867 9.45617C120.023 9.45617 118.025 9.50057 115.85 9.50057L116.383 6.25972C116.693 4.39512 117.315 2.7525 118.558 2.7525Z" fill="white"/>
<path d="M129.272 9.01222C123.501 9.01222 119.772 14.6504 119.772 19.8446C119.772 24.9501 123.19 28.3241 127.719 28.3241C133.49 28.3241 137.486 22.9079 137.486 17.3585C137.486 11.9867 133.623 9.01222 129.272 9.01222ZM130.249 11.6315C131.492 11.6315 132.247 13.0078 132.247 15.5827C132.247 20.2442 129.938 25.5272 127.452 25.5272C126.209 25.5272 125.455 24.2398 125.455 21.6648C125.455 16.8258 127.807 11.6315 130.249 11.6315Z" fill="white"/>
<path d="M158.499 21.2653C157.256 23.3519 155.436 24.7725 153.66 24.7725C151.307 24.7725 149.532 22.242 148.333 19.2675C151.174 17.7581 156.59 14.1621 156.59 11.5427C156.59 10.0777 154.815 9.2342 153.66 9.2342C153.438 9.2342 153.305 9.32299 153.261 9.45617C152.373 11.8979 150.242 15.0056 147.667 17.3585C146.69 14.384 146.291 11.3652 146.291 10.1665C146.38 9.67815 146.069 9.45617 145.625 9.45617C144.204 9.45617 141.052 11.1876 141.052 13.2298C141.052 15.0056 141.496 17.4029 142.384 19.7559C140.12 20.8213 137.412 22.8191 137.412 25.7492C137.412 28.3685 139.676 29.1676 140.83 29.1676C141.54 29.1676 141.896 28.9013 141.851 28.5017C141.807 28.1909 141.718 27.303 141.718 26.6371C141.718 25.0389 142.073 23.2631 143.227 21.7092C144.959 25.1721 147.667 28.1021 151.307 28.1021C156.013 28.1021 159.565 23.5738 159.565 22.1532C159.565 21.5317 158.988 21.1765 158.499 21.2653Z" fill="white"/>
<path fill-rule="evenodd" clip-rule="evenodd" d="M148.259 6.79984C147.553 7.31487 145.773 8.94547 146.744 13.8003C146.762 13.8897 146.78 13.9782 146.798 14.0659C146.121 13.5979 145.304 12.8565 145.01 11.9853L145.03 15.1135C144.457 14.5311 143.329 13.0294 143.403 11.6823C142.8 12.2254 141.629 13.4726 141.138 14.6299C141.083 14.107 141.041 13.5322 141.017 12.8911C140.876 9.12928 143.043 6.05804 148.259 6.79984Z" fill="#9A9A9A"/>
<path d="M145.42 7.47503C142.329 8.64222 141.832 10.0391 141.844 12.2471C142.352 9.93461 143.483 9.2997 143.985 9.27131C143.95 9.56127 144.378 10.0029 144.596 10.1874C144.269 9.29593 145.009 8.0077 145.42 7.47503Z" fill="white"/>
<path d="M140.224 21.036C142.248 19.8664 142.658 21.5061 143.225 21.7105C142.771 20.9306 142.387 19.7553 142.387 19.7553C142.387 19.7553 141.271 20.253 140.224 21.036Z" fill="#C7C7C7"/>
<path d="M112.345 12.3514C113.885 12.5883 114.624 13.933 115.01 14.395C115.153 13.5914 115.361 12.3407 115.361 12.3407L112.345 12.3514Z" fill="#C7C7C7"/>
<path d="M100.017 30.8165C99.2146 30.9104 97.6901 31.3598 97.0308 31.5652C96.8394 32.2114 96.5761 33.083 96.2648 33.8077C97.1013 32.8155 98.3582 31.339 100.017 30.8165Z" fill="#C7C7C7"/>
<path d="M21.4029 22.0663C22.4997 21.6355 22.9066 21.3826 23.6295 20.9589C23.6835 21.373 23.7563 21.9475 23.9818 22.5591C23.2825 22.0874 23.0642 21.7853 21.4029 22.0663Z" fill="#C7C7C7"/>
<path d="M35.4702 20.946C36.4239 20.9133 37.0881 20.926 37.7488 20.906C37.7802 21.3162 37.8542 21.8488 38.028 22.3928C37.3729 21.809 36.9651 21.4773 35.4702 20.946Z" fill="#C7C7C7"/>
<path d="M52.7116 20.946C53.6654 20.9133 54.3295 20.926 54.9903 20.906C55.0216 21.3162 55.0957 21.8488 55.2694 22.3928C54.6143 21.809 54.2065 21.4773 52.7116 20.946Z" fill="#C7C7C7"/>
<path d="M70.1747 24.39C70.4479 24.7869 71.0986 25.4277 71.5504 25.8818C71.4827 26.2764 71.3839 26.821 71.2781 27.3772C70.9178 26.5771 70.3569 25.7713 70.1747 24.39Z" fill="#C7C7C7"/>
</svg>
