<svg width="2063" height="622" viewBox="0 0 2063 622" fill="none" xmlns="http://www.w3.org/2000/svg">
<g clip-path="url(#clip0_32_287)">
<path d="M583.957 404.468C630.558 404.468 661.194 376.853 661.194 346.217C661.194 317.307 635.736 301.773 620.634 291.418C599.059 276.747 584.82 267.686 584.82 255.604C584.82 247.406 591.293 240.07 602.511 240.07C622.36 240.07 637.031 259.919 639.62 273.295C640.051 276.315 642.209 277.61 644.797 277.61C654.29 277.61 671.55 268.117 671.55 252.152C671.55 232.735 643.503 215.475 605.532 215.475C563.246 215.475 533.904 241.365 533.904 272.864C533.904 301.342 561.52 317.307 580.937 330.252C593.881 338.882 608.552 349.669 608.552 362.614C608.552 372.538 599.491 378.579 588.704 378.579C565.834 378.579 548.143 360.888 546.849 333.704C546.849 331.115 544.26 328.526 540.376 328.526C529.589 328.526 512.33 340.176 512.33 359.162C512.33 383.757 542.534 404.468 583.957 404.468Z" fill="white"/>
<path d="M838.188 334.998C825.243 352.69 803.668 371.675 779.505 371.675C758.362 371.675 744.985 359.593 741.965 332.409C777.779 312.992 831.715 240.07 831.715 188.291C831.715 150.32 801.079 131.334 778.21 131.334C723.842 131.334 686.303 239.639 686.303 310.835C686.303 385.483 729.883 403.606 760.951 403.606C808.415 403.606 848.543 360.456 848.543 344.06C848.543 336.724 842.503 334.135 838.188 334.998ZM791.587 159.813C796.333 159.813 800.216 164.128 800.216 175.778C800.216 204.256 779.073 272.864 741.102 310.403C743.691 252.152 771.738 159.813 791.587 159.813Z" fill="white"/>
<path d="M997.935 334.998C974.635 360.456 949.606 372.538 920.264 372.538C897.395 372.538 880.999 359.162 879.273 331.978C916.381 329.82 977.655 303.068 977.655 260.35C977.655 233.598 952.626 217.201 921.127 217.201C862.013 217.201 822.316 277.178 822.316 328.094C822.316 375.559 856.835 404.468 902.573 404.468C961.688 404.468 1007.43 357.004 1007.43 343.628C1007.43 338.019 1002.25 334.998 997.935 334.998ZM926.737 239.207C932.778 239.207 937.956 242.659 937.956 252.152C937.956 275.453 909.477 309.109 880.136 313.855C885.314 279.767 906.888 239.207 926.737 239.207Z" fill="white"/>
<path d="M1166.07 334.998C1142.77 360.456 1117.74 372.538 1088.4 372.538C1065.53 372.538 1049.13 359.162 1047.41 331.978C1084.52 329.82 1145.79 303.068 1145.79 260.35C1145.79 233.598 1120.76 217.201 1089.26 217.201C1030.15 217.201 990.445 277.178 990.445 328.094C990.445 375.559 1024.97 404.468 1070.71 404.468C1129.82 404.468 1175.56 357.004 1175.56 343.628C1175.56 338.019 1170.38 334.998 1166.07 334.998ZM1094.87 239.207C1100.91 239.207 1106.09 242.659 1106.09 252.152C1106.09 275.453 1077.61 309.109 1048.27 313.855C1053.45 279.767 1075.02 239.207 1094.87 239.207Z" fill="white"/>
<path d="M1287.17 219.359C1260.41 219.359 1237.11 244.817 1220.28 287.103C1224.6 265.097 1227.19 250.426 1227.19 246.974C1227.19 232.735 1201.73 218.927 1188.35 218.927C1183.61 218.927 1180.16 220.222 1180.16 224.536C1180.16 239.207 1141.32 431.652 1141.32 449.344C1141.32 469.192 1169.37 484.294 1184.47 484.294C1189.65 484.294 1193.1 482.569 1193.1 478.254C1193.1 463.151 1200 423.023 1207.77 380.305C1220.28 393.25 1237.11 403.174 1253.94 403.174C1307.88 403.174 1343.26 334.135 1343.26 287.534C1343.26 246.111 1314.78 219.359 1287.17 219.359ZM1239.7 373.401C1228.05 373.401 1219.85 362.614 1214.24 350.532C1229.35 301.773 1260.41 249.132 1276.81 249.132C1285.01 249.132 1288.03 259.056 1288.03 273.295C1288.03 309.109 1265.59 373.401 1239.7 373.401Z" fill="white"/>
<path d="M1541.28 256.467C1544.73 235.755 1514.96 219.359 1498.99 219.359C1493.38 219.359 1489.93 221.085 1489.93 225.831C1489.93 230.146 1488.63 237.913 1487.34 248.269C1475.26 312.129 1448.94 367.36 1425.21 367.36C1419.16 367.36 1413.99 364.771 1413.99 353.552C1413.99 332.409 1430.82 268.549 1430.82 256.467C1430.82 236.187 1402.34 219.359 1388.1 219.359C1382.92 219.359 1379.47 221.516 1379.47 225.831C1379.47 246.974 1358.76 328.957 1358.76 353.984C1358.76 382.894 1383.35 401.88 1410.53 401.88C1437.29 401.88 1456.7 381.168 1472.24 348.375C1469.22 369.949 1465.77 391.524 1461.45 411.372C1414.42 421.728 1371.7 451.07 1371.7 482.137C1371.7 502.417 1390.25 517.519 1418.3 517.519C1465.33 517.519 1492.09 477.822 1507.62 426.475C1512.37 426.475 1516.25 426.906 1520.57 427.338C1524.45 427.338 1526.17 424.749 1526.17 422.16C1526.17 417.845 1521.86 412.235 1512.8 409.215C1515.39 397.565 1517.98 385.483 1520.13 373.401L1541.28 256.467ZM1412.69 494.65C1405.36 494.65 1401.04 490.767 1401.04 483C1401.04 465.74 1424.77 446.323 1455.41 435.536C1445.49 470.055 1431.68 494.65 1412.69 494.65Z" fill="white"/>
<path d="M1664.64 155.498C1671.98 155.498 1678.88 161.539 1685.36 174.483C1693.55 176.209 1707.36 166.717 1707.36 153.772C1707.36 139.533 1693.12 128.745 1668.96 128.745C1629.26 128.745 1597.33 157.224 1587.84 208.14L1585.25 221.947H1567.99C1561.09 221.947 1558.5 225.831 1558.5 229.714C1558.5 238.344 1567.56 249.994 1576.19 249.994H1580.07L1544.69 437.262C1544.26 443.303 1550.73 446.755 1559.79 446.755C1575.32 446.755 1601.65 436.399 1605.96 410.078L1633.58 248.7C1650.84 248.268 1663.78 247.405 1666.37 246.974C1682.33 244.817 1695.28 234.029 1695.28 226.262C1695.28 222.81 1692.26 220.653 1687.08 220.653C1678.88 220.653 1659.47 221.084 1638.32 221.084L1643.5 189.586C1646.52 171.463 1652.56 155.498 1664.64 155.498Z" fill="#FB8C00"/>
<path d="M1768.78 216.338C1712.69 216.338 1676.44 271.138 1676.44 321.622C1676.44 371.244 1709.67 404.037 1753.68 404.037C1809.77 404.037 1848.61 351.395 1848.61 297.459C1848.61 245.248 1811.07 216.338 1768.78 216.338ZM1778.27 241.796C1790.36 241.796 1797.69 255.172 1797.69 280.199C1797.69 325.505 1775.25 376.853 1751.09 376.853C1739.01 376.853 1731.67 364.34 1731.67 339.313C1731.67 292.281 1754.54 241.796 1778.27 241.796Z" fill="#FB8C00"/>
<path d="M2052.84 335.43C2040.76 355.71 2023.06 369.518 2005.81 369.518C1982.94 369.518 1965.68 344.923 1954.03 316.013C1981.64 301.342 2034.28 266.391 2034.28 240.933C2034.28 226.694 2017.02 218.496 2005.81 218.496C2003.65 218.496 2002.35 219.359 2001.92 220.653C1993.29 244.385 1972.58 274.589 1947.55 297.459C1938.06 268.549 1934.18 239.207 1934.18 227.557C1935.04 222.81 1932.02 220.653 1927.71 220.653C1913.9 220.653 1883.26 237.481 1883.26 257.33C1883.26 274.589 1887.58 297.89 1896.21 320.759C1874.2 331.115 1847.88 350.532 1847.88 379.01C1847.88 404.468 1869.89 412.235 1881.1 412.235C1888.01 412.235 1891.46 409.646 1891.03 405.763C1890.6 402.742 1889.73 394.113 1889.73 387.64C1889.73 372.107 1893.19 354.847 1904.4 339.745C1921.23 373.401 1947.55 401.88 1982.94 401.88C2028.67 401.88 2063.19 357.867 2063.19 344.06C2063.19 338.019 2057.58 334.567 2052.84 335.43Z" fill="#FB8C00"/>
<path d="M1904.41 339.747C1900.02 332.168 1896.21 320.719 1896.21 320.719L1896.2 320.72C1896.21 320.733 1896.21 320.746 1896.22 320.759C1889.35 323.991 1882.06 328.105 1875.28 333.102C1889.76 324.804 1895.77 331.373 1900.15 336.151C1901.66 337.807 1902.98 339.248 1904.39 339.78C1904.4 339.769 1904.4 339.758 1904.41 339.747Z" fill="#C95F00"/>
<path d="M1630.15 268.705C1629.62 268.045 1629.02 267.225 1628.33 266.297C1624.13 260.578 1616.89 250.738 1604.25 248.794L1633.69 248.682C1633.69 248.682 1631.76 261.152 1630.36 268.962C1630.29 268.879 1630.22 268.793 1630.15 268.705Z" fill="#C95F00"/>
<path fill-rule="evenodd" clip-rule="evenodd" d="M1953.31 194.836C1946.45 199.842 1929.15 215.69 1938.59 262.876C1938.77 263.745 1938.94 264.605 1939.11 265.457C1932.53 260.909 1924.6 253.703 1921.74 245.236L1921.94 275.64C1916.36 269.979 1905.4 255.384 1906.12 242.291C1900.25 247.57 1888.87 259.692 1884.1 270.94C1883.57 265.857 1883.17 260.27 1882.93 254.039C1881.56 217.477 1902.62 187.627 1953.31 194.836Z" fill="#FFD4B6"/>
<path d="M1925.71 201.398C1895.67 212.743 1890.84 226.319 1890.95 247.78C1895.89 225.304 1906.88 219.133 1911.76 218.857C1911.42 221.675 1915.58 225.967 1917.7 227.761C1914.52 219.096 1921.71 206.576 1925.71 201.398Z" fill="white"/>
<path d="M1448.1 457.177C1456.23 447.535 1468.4 433.313 1484.44 428.262C1476.65 429.173 1461.83 433.537 1455.41 435.537C1454.02 440.369 1452.55 445.006 1451.01 449.408C1450.69 450.313 1450.37 451.215 1450.04 452.11C1449.41 453.839 1448.76 455.529 1448.1 457.177Z" fill="#C0B7BE"/>
<path d="M742.043 332.367V332.365C741.902 332.444 741.763 332.521 741.624 332.599C734.732 336.445 730.662 338.717 720.211 342.821C734.589 340.389 737.954 342.764 743.317 346.55C743.959 347.004 744.631 347.478 745.354 347.967C743.756 343.468 742.618 338.292 741.964 332.409C741.99 332.395 742.017 332.381 742.043 332.367Z" fill="#C0B7BE"/>
<path d="M879.404 331.97L879.403 331.965C876.611 332.045 873.798 332.066 870.75 332.09C866.756 332.12 862.358 332.153 857.076 332.326C871.532 337.459 875.586 340.676 881.877 346.254C880.496 342.014 879.608 337.256 879.273 331.978C879.317 331.975 879.36 331.973 879.404 331.97Z" fill="#C0B7BE"/>
<path d="M1047.43 331.977V331.973C1044.64 332.053 1041.82 332.074 1038.77 332.097C1034.78 332.128 1030.38 332.161 1025.1 332.334C1039.68 337.51 1043.68 340.737 1050.06 346.403C1048.65 342.125 1047.75 337.318 1047.41 331.978C1047.41 331.978 1047.42 331.977 1047.43 331.977Z" fill="#C0B7BE"/>
<path d="M1207.82 380.351V380.347C1207.39 379.923 1206.95 379.482 1206.5 379.028C1202.23 374.75 1196.78 369.287 1194.38 365.8C1195.74 376.135 1199.35 383.234 1202.54 389.502C1203.47 391.327 1204.36 393.081 1205.15 394.824C1206.01 390.041 1206.88 385.19 1207.77 380.305C1207.79 380.32 1207.8 380.336 1207.82 380.351Z" fill="#C0B7BE"/>
<path d="M348.796 146.196C285.707 152.549 158.362 165.255 153.699 165.255C152.983 197.574 151.385 263.868 150.726 270.497C150.067 277.127 179.091 320.218 193.686 340.935C242.143 330.991 340.288 310.44 345.215 307.788C350.143 305.136 391.758 272.431 411.95 256.41C409.042 235.417 402.791 192.767 401.056 190.116C399.321 187.464 365.493 159.731 348.796 146.196Z" fill="#C95F00"/>
<path d="M181.049 113.243L173.149 124.052C169.965 120.085 173.464 105.76 175.612 99.0931L192.745 85.037L221.299 114.416C217.217 114.994 205.058 111.293 199.488 109.369L197.024 118.1L188.855 107.922L187.352 119.326L181.049 113.243Z" fill="#C95F00"/>
<path d="M190.679 89.5445C174.868 99.053 174.287 116.661 172.861 124.474C160.999 104.9 181.314 83.3946 199.67 69.508C196.32 78.1181 211.123 103.486 221.798 114.656C211.237 113.004 196.49 95.7185 190.679 89.5445Z" fill="#54304C"/>
<path fill-rule="evenodd" clip-rule="evenodd" d="M188.554 265.841C203.346 263.846 202.444 265.503 221.431 268.508C306.345 281.951 336.838 258.49 348.065 213.558C331.735 206.891 298.809 189.64 297.742 173.969C296.407 154.38 281.255 132.959 262.885 125.459C259.556 124.1 253.838 122.2 246.703 119.829C214.46 109.117 153.276 88.7903 152.817 65.2877C144.278 78.0025 128.286 101.977 139.026 116.557C48.494 147.349 7.91882 213.439 1.03032 285.849C-5.83988 352.405 21.7344 415.384 81.1551 449.389C146.381 486.718 210.918 464.363 263.77 464.363C336.575 432.001 346.214 361.844 348.818 289.912C321.033 303.276 294.581 302.445 260.368 300.016C224.79 297.491 190.557 285.849 188.554 265.841Z" fill="url(#paint0_radial_32_287)"/>
<path d="M210.379 154.513C228.724 150.668 249.855 160.603 248.646 186.48C242.392 175.244 221.066 160.167 210.379 154.513Z" fill="#54304C"/>
<path fill-rule="evenodd" clip-rule="evenodd" d="M140.087 469.183C153.577 470.839 167.023 471.004 180.493 470.444L226.12 445.286C138.411 429.304 29.264 381.923 40.9584 264.344C50.3139 170.282 114.607 130.743 145.606 122.592L139.204 116.557L138.932 116.427C138.963 116.471 138.995 116.514 139.026 116.557C96.6036 130.986 65.151 153.165 42.9932 180.113C23.7755 203.486 11.55 230.446 5.22435 259.048C3.27875 267.846 1.89135 276.798 1.03035 285.849C-5.83995 352.404 21.7344 415.384 81.1547 449.389C100.965 460.727 120.712 466.559 140.087 469.183Z" fill="url(#paint1_linear_32_287)"/>
<path d="M181.3 154.402C217.769 235.659 293.718 231.48 327.134 219.234L345.189 220.819C339.198 251.32 320.562 288.143 200.421 268.237C129.745 256.526 82.5487 330.794 78.0957 374.836C64.795 292.76 128.983 233.299 168.312 216.488C162.853 207.163 151.241 200.708 144.733 196.818L171.602 196.884C176.634 198.381 184.046 199.897 173.438 193.982C162.83 188.067 156.604 174.128 154.817 167.898L184.652 184.533C177.869 176.355 179.591 161.038 181.3 154.402Z" fill="#FFD4B6"/>
<path d="M202.776 268.622C201.995 268.496 201.21 268.368 200.42 268.237C146.86 259.362 106.784 299.865 88.5762 339.171C114.654 259.763 157.453 244.225 178.182 247.677L158.602 238.163L193.804 235.614L193.87 216.235C194.112 220.09 205.957 231.82 252.369 250.121C299.812 268.828 333.732 238.698 344.761 221.294C344.827 221.532 344.886 221.784 344.94 222.049C342.283 234.883 337.202 248.677 323.178 258.806C322 259.632 320.763 260.455 319.464 261.27C301.357 272.299 270.414 277.845 216.378 270.632C213.387 270.185 210.577 269.745 207.985 269.339C206.23 269.065 204.494 268.826 202.776 268.622Z" fill="#FDEEE6"/>
<path d="M193.872 215.989L193.871 216.235C193.866 216.149 193.866 216.067 193.872 215.989Z" fill="#FDEEE6"/>
<path d="M357.62 215.631C356.733 222.868 346.031 229.614 338.775 229.448C331.519 229.282 326.355 223.281 327.242 216.044C328.129 208.807 330.1 204.883 337.356 205.049C344.612 205.215 358.507 208.394 357.62 215.631Z" fill="#54304C"/>
<path d="M353.023 216.426C352.172 217.77 350.445 218.281 349.166 217.567C347.887 216.854 347.539 215.186 348.39 213.842C349.24 212.499 350.967 211.988 352.246 212.701C353.526 213.415 353.873 215.082 353.023 216.426Z" fill="#FDEEE6"/>
<path fill-rule="evenodd" clip-rule="evenodd" d="M296.566 166.355C368.776 148.445 396.223 208.144 379.597 242.061C370.385 260.854 347.926 267.287 319.851 275.33C276.045 287.878 218.568 304.343 176.409 377.783C107.231 498.29 156.711 573.24 210.695 621.573C220.504 522.954 273.807 489.094 327.339 455.09C381.329 420.794 435.551 386.351 445.615 285.173C454.081 200.053 411.993 147.415 360.209 137.877C326.581 131.683 301.057 139.662 287.292 146.018C291.64 152.3 294.89 159.315 296.566 166.355Z" fill="url(#paint2_linear_32_287)"/>
<path d="M445.809 247.777C440.366 269.688 402.915 327.379 373.775 351.963C383.749 350.435 425.254 314.175 442.851 305.277C443.986 298.938 444.912 292.246 445.616 285.172C446.949 271.767 446.943 259.313 445.809 247.777Z" fill="#F87601"/>
<path d="M307.105 468.13C276.585 464.266 248.417 471.736 230.231 478.441C230.231 478.441 247.54 435.532 255.686 416.782C233.456 420.532 201.11 450.844 187.715 465.532C173.843 451.676 172.39 409.23 173.678 382.626C108.564 500.303 157.438 573.89 210.695 621.572C219.262 535.439 261.007 498.705 307.105 468.13Z" fill="#FFD4B6"/>
<path d="M199.862 575.493C165.683 540.243 158.987 486.45 165.864 465.856C177.555 521.6 195.291 527.533 195.291 527.533C200.895 514.056 220.201 497.771 235.504 495.331C219.134 515.546 201.86 555.409 199.862 575.493Z" fill="white"/>
<path d="M149.519 110.107L145.606 122.593C141.123 120.093 139.527 105.932 139.289 99.1637L151.053 80.5788L192.45 99.505C188.68 101.426 169.653 100.069 164.569 97.901L166.758 109.033L155.256 102.619L157.776 113.453L149.519 110.107Z" fill="#F2FEFE"/>
<path d="M150.58 84.9081C138.516 98.9251 144.273 115.035 145.613 122.593C124.534 112.577 139.321 82.5488 152.334 63.6988C152.08 72.6373 184.185 95.682 198.472 102.135C187.619 104.256 158.39 88.5059 150.58 84.9081Z" fill="#54304C"/>
</g>
<defs>
<radialGradient id="paint0_radial_32_287" cx="0" cy="0" r="1" gradientUnits="userSpaceOnUse" gradientTransform="translate(233.011 161.651) rotate(144.128) scale(132.791 124.267)">
<stop stop-color="#FBA600"/>
<stop offset="1" stop-color="#FB8C00"/>
</radialGradient>
<linearGradient id="paint1_linear_32_287" x1="61.7007" y1="191.681" x2="126.902" y2="437.261" gradientUnits="userSpaceOnUse">
<stop stop-color="#F87601"/>
<stop offset="1" stop-color="#F87601" stop-opacity="0"/>
</linearGradient>
<linearGradient id="paint2_linear_32_287" x1="276.637" y1="299.292" x2="352.196" y2="405.704" gradientUnits="userSpaceOnUse">
<stop stop-color="#FBA600"/>
<stop offset="1" stop-color="#FB8C00"/>
</linearGradient>
<clipPath id="clip0_32_287">
<rect width="2063" height="622" fill="white"/>
</clipPath>
</defs>
</svg>
